<svg viewBox="0 0 320 320" version="1.1" xmlns="http://www.w3.org/2000/svg" desc="Created with imagetracer.js version 1.2.6" ><path fill="rgb(76,185,34)" stroke="rgb(76,185,34)" stroke-width="0" opacity="1" d="M 143.5 32 Q 148.8 30.8 150 33.5 L 150 53.5 L 151.5 55 Q 165.6 59.9 174 70.5 Q 181.4 77.6 181 92.5 L 179 100.5 L 175 108 L 117.5 108 L 117 106.5 L 112 98.5 L 111 85.5 Q 114.6 69.6 126.5 62 L 142 53.5 L 142 33.5 L 143.5 32 Z " /><path fill="rgb(76,185,34)" stroke="rgb(76,185,34)" stroke-width="0" opacity="1" d="M 219.5 94 Q 223.3 93.3 224 95.5 L 225 97.5 L 225 116.5 L 226.5 118 Q 241.6 122.9 250 134.5 Q 257.2 142.3 255 159.5 L 248.5 171 L 192.5 171 L 192 169.5 Q 184.5 163 186 147.5 Q 188.9 133.9 198.5 127 L 217 115.5 L 217 96.5 L 219.5 94 Z " /><path fill="rgb(76,185,34)" stroke="rgb(76,185,34)" stroke-width="0" opacity="1" d="M 142.5 135 Q 147.9 133.1 147 136.5 L 144 140.5 L 144 160.5 L 142.5 162 Q 138.8 162.8 138 160.5 L 138 140.5 L 142.5 135 Z " /><path fill="rgb(76,185,34)" stroke="rgb(76,185,34)" stroke-width="0" opacity="1" d="M 145.5 184 Q 148.1 183.2 147 186.5 L 144 190.5 L 144 210.5 L 142.5 212 Q 138.8 212.8 138 210.5 L 138 189.5 L 142.5 185 L 145.5 184 Z " /><path fill="rgb(76,185,34)" stroke="rgb(76,185,34)" stroke-width="0" opacity="1" d="M 219.5 196 Q 222.8 194.9 222 197.5 L 219 201.5 L 219 221.5 L 217.5 223 Q 213.8 223.8 213 221.5 L 213 201.5 L 216.5 197 L 219.5 196 Z " /><path fill="rgb(253,208,1)" stroke="rgb(253,208,1)" stroke-width="0" opacity="1" d="M 145.5 0 L 165 0.5 L 163.5 2 L 155.5 3 L 141.5 8 L 124.5 17 Q 105.7 28.7 92 45.5 Q 76 64.5 68 91.5 L 64 111.5 L 64 141.5 Q 73.5 196.5 109.5 225 L 118.5 232 L 119.5 231 L 122.5 234 L 147.5 247 L 170.5 253 L 172.5 252 L 176.5 254 Q 187.3 252.2 193.5 255 Q 195 251.5 196.5 254 Q 227.8 253.3 247.5 241 Q 249 243.5 250.5 240 Q 273.5 229 289 210.5 Q 300.1 197.6 308 181.5 L 314 166.5 L 317 156.5 L 318 146.5 L 319.5 145 L 320 178.5 L 319 179.5 L 317 196.5 L 313 210.5 L 300 239.5 Q 286.5 263.5 266.5 281 Q 242.5 303 207.5 314 L 179.5 320 L 141.5 320 L 113.5 314 L 84.5 302 Q 58.8 287.8 40 266.5 Q 18 242.5 7 207.5 L 2 186.5 L 2 179.5 L 0 175.5 L 0 145.5 L 2 141.5 L 2 134.5 L 7 113.5 L 19 84.5 Q 33.3 58.8 54.5 40 Q 73 23.5 97.5 13 L 120.5 5 L 135.5 2 L 142.5 2 L 145.5 0 Z " /><path fill="rgb(253,208,1)" stroke="rgb(253,208,1)" stroke-width="0" opacity="1" d="M 250.5 12 L 254 19.5 L 260.5 26 Q 265.3 26.3 267 29.5 L 255 37.5 L 250.5 47 L 248 44.5 L 246 38.5 L 241.5 34 L 233 29.5 L 245 21.5 L 250.5 12 Z " /><path fill="rgb(253,208,1)" stroke="rgb(253,208,1)" stroke-width="0" opacity="1" d="M 208.5 43 L 220 53.5 L 209.5 65 L 198 54.5 L 208.5 43 Z " /><path fill="rgb(253,208,1)" stroke="rgb(253,208,1)" stroke-width="0" opacity="1" d="M 258.5 70 L 266.5 82 L 276 86.5 L 263 95.5 L 261 101.5 L 258.5 104 L 250.5 92 L 242 87.5 Q 240.8 83.8 244.5 85 L 253 79.5 L 258.5 70 Z " /><path fill="rgb(251,235,206)" stroke="rgb(251,235,206)" stroke-width="0" opacity="1" d="M 140.5 117 L 170.5 117 L 172 118.5 L 172 251.5 L 170.5 253 L 147.5 247 L 128.5 238 L 120 231.5 L 120 118.5 L 120.5 118 L 139.5 118 L 140.5 117 Z M 143 134 L 137 142 L 137 161 L 140 163 L 142 162 L 153 162 L 154 161 L 154 140 L 153 138 Q 151 133 143 134 Z M 143 184 L 137 192 L 137 211 L 139 212 L 153 212 L 154 211 L 154 190 L 153 188 Q 151 183 143 184 Z " /><path fill="rgb(251,235,206)" stroke="rgb(251,235,206)" stroke-width="0" opacity="1" d="M 196.5 180 L 245.5 180 L 247 181.5 L 247 241.5 L 245.5 242 L 238.5 246 L 218.5 252 L 196.5 254 L 195 252.5 L 195 181.5 L 196.5 180 Z M 220 195 L 216 197 L 212 203 L 212 223 L 214 224 L 228 224 L 229 223 L 229 202 L 228 200 L 223 195 L 220 195 Z " /><path fill="rgb(192,179,44)" stroke="rgb(192,179,44)" stroke-width="0" opacity="0" d="M 0 0 L 140 0.5 L 117.5 5 L 111.5 8 L 102.5 10 L 81.5 20 Q 57.7 33.7 40 53.5 Q 26 69 16 88.5 L 6 113.5 L 0.5 140 L 0 0 Z " /><path fill="rgb(192,179,44)" stroke="rgb(192,179,44)" stroke-width="0" opacity="0" d="M 167.5 0 L 320 0 L 320 140.5 L 318 142.5 L 318 148.5 L 316 152.5 L 313 167.5 L 303 189.5 Q 291.5 209.5 274.5 224 L 248.5 241 L 247 239.5 L 247 182.5 L 247.5 180 Q 249.2 182.8 255.5 181 L 255.5 179 Q 257.3 181.8 259 177.5 Q 260 172 256.5 171 L 255 171.5 L 255.5 170 Q 251.1 171.5 252 168.5 L 251 168.5 L 250.5 171 L 250 168.5 L 252 165 L 254 164.5 L 253.5 163 L 255 163.5 L 254 160.5 L 256 160.5 L 254 142.5 L 254.5 141 L 253 140.5 L 253.5 139 L 252 138.5 L 252.5 137 L 250 135.5 L 250.5 134 L 238 123.5 L 237.5 122 L 235.5 122 L 231 119.5 L 230.5 118 L 229 118.5 L 228.5 117 L 226.5 118 L 225 116.5 L 225 97.5 L 222.5 93 L 220.5 94 L 219 93.5 L 217 96.5 L 217 115.5 L 214.5 118 L 213 117.5 Q 213.8 119.8 211.5 119 L 206.5 122 L 205 121.5 L 204.5 123 L 203 122.5 L 199.5 127 L 198 126.5 L 193.5 132 L 191 133.5 L 191 135.5 L 189.5 138 L 188 138.5 L 188.5 140 L 187 140.5 L 188 142.5 L 186 142.5 L 187 146.5 L 186 147.5 L 186 157.5 L 187 160.5 L 186 162.5 L 188 162.5 L 187.5 164 Q 189.8 163.3 189 165.5 L 192 169.5 L 190 170.5 L 190.5 169 L 186 170.5 L 186.5 172 L 184 173.5 Q 183 178 185.5 179 L 187 179.5 L 186.5 181 Q 192.5 179.5 194 182.5 L 194 252.5 L 192.5 254 L 181.5 254 Q 180 251.5 174.5 253 L 173 251.5 L 173 119.5 L 172 118.5 Q 173.5 115.5 179.5 117 L 181.5 118 L 182.5 115 L 184 114.5 L 183 112.5 L 184 110.5 Q 182.3 106.3 180.5 109 L 177 108 L 176.5 106 L 175.5 108 L 175 106.5 L 178 104.5 L 177.5 103 L 179 102.5 L 178.5 101 L 180 100.5 L 179 98.5 L 181 98.5 L 180 93.5 Q 182.5 92 181 86.5 L 180 82.5 L 181 80.5 L 179 80.5 L 180 78.5 L 178 77.5 L 178.5 76 L 177 75.5 L 177.5 74 L 174 71.5 L 166.5 62 Q 165 64.5 163.5 61 L 161 59.5 L 160.5 58 L 159 58.5 L 158.5 57 L 156.5 57 L 150 53.5 L 150 34.5 L 151 33.5 Q 149.3 29.3 147.5 32 Q 142.8 31.3 141 33.5 L 142 34.5 L 142 53.5 L 135.5 57 L 134 56.5 L 132.5 59 L 127.5 62 L 126 61.5 L 117.5 71 L 116 71.5 Q 118.5 73 115 74.5 L 114 78 L 112 78.5 L 112.5 80 Q 110.3 79.3 111 81.5 L 112 84.5 L 111 84.5 L 110.5 83 L 110 85.5 L 111 86.5 L 112 97.5 L 111 99.5 L 113 99.5 L 112.5 101 Q 114.8 100.3 114 102.5 L 117 108 L 111.5 109 Q 109.7 106.3 108 110.5 L 111 116.5 L 110.5 118 L 118.5 117 Q 121.3 118.3 119 119.5 L 119 229.5 L 117.5 230 L 102 217.5 Q 82.9 198.6 72 171.5 L 67 154.5 L 66 142.5 L 65 141.5 L 65 111.5 L 66 110.5 L 66 103.5 L 68 93.5 L 70 90.5 L 73 78.5 L 80 64.5 Q 92.3 42.3 111.5 27 L 134.5 12 L 157.5 3 L 165.5 2 L 167.5 0 Z M 251 11 L 245 21 Q 242 25 236 26 Q 232 26 233 31 L 242 35 Q 246 39 248 46 L 251 47 L 256 38 L 268 30 Q 265 25 259 24 L 251 11 Z M 141 35 L 140 53 L 141 53 L 141 35 Z M 208 43 L 198 53 L 198 56 L 210 66 L 221 54 L 211 43 L 208 43 Z M 259 69 Q 255 72 254 78 Q 251 83 244 84 L 241 88 L 244 90 L 250 92 Q 255 95 256 103 L 260 105 L 264 96 Q 267 91 274 90 L 276 87 L 267 81 Q 262 77 261 71 L 259 69 Z M 216 97 L 215 116 L 216 116 L 216 97 Z " /><path fill="rgb(192,179,44)" stroke="rgb(192,179,44)" stroke-width="0" opacity="0" d="M 0.5 181 L 6 207.5 L 16 232.5 Q 30.7 260.8 53.5 281 L 71.5 295 L 88.5 305 L 113.5 315 L 130.5 318 L 133 319.5 L 0 320 L 0.5 181 Z " /><path fill="rgb(192,179,44)" stroke="rgb(192,179,44)" stroke-width="0" opacity="0" d="M 319.5 187 L 320 320 L 188 319.5 L 190.5 318 L 207.5 315 L 221.5 310 L 241.5 300 Q 264 286.5 281 267.5 Q 296.4 249.9 307 227.5 L 316 203.5 L 318 189.5 L 319.5 187 Z " /><path fill="rgb(129,210,97)" stroke="rgb(129,210,97)" stroke-width="0" opacity="1" d="M 112.5 108 L 178.5 108 L 183 110.5 Q 184 116 180.5 117 L 171.5 118 L 170.5 117 L 140.5 117 L 139.5 118 L 119.5 118 Q 117.7 115.3 111.5 117 L 109 114.5 Q 108 110 110.5 109 L 112.5 108 Z " /><path fill="rgb(129,210,97)" stroke="rgb(129,210,97)" stroke-width="0" opacity="1" d="M 142.5 134 Q 150.8 132.7 153 137.5 L 154 139.5 L 154 160.5 L 152.5 162 L 143.5 162 L 144 160.5 L 144 140.5 L 147 135 Q 140.6 133.8 139 138.5 L 138.5 140 L 138 138.5 L 142.5 134 Z " /><path fill="rgb(129,210,97)" stroke="rgb(129,210,97)" stroke-width="0" opacity="1" d="M 137.5 141 L 138 160.5 L 139.5 162 L 141 162.5 L 139.5 163 L 137 160.5 L 137.5 141 Z " /><path fill="rgb(129,210,97)" stroke="rgb(129,210,97)" stroke-width="0" opacity="1" d="M 191.5 170 L 192.5 171 L 248.5 171 L 250.5 171 Q 256.3 170.2 258 173.5 Q 259 178 256.5 179 L 246.5 181 L 245.5 180 L 196.5 180 L 194.5 181 Q 193 178.5 187.5 180 L 184 177.5 Q 183 173 185.5 172 L 191.5 170 Z " /><path fill="rgb(129,210,97)" stroke="rgb(129,210,97)" stroke-width="0" opacity="1" d="M 142.5 184 L 145 184.5 Q 139.9 184.9 138.5 189 L 142.5 184 Z " /><path fill="rgb(129,210,97)" stroke="rgb(129,210,97)" stroke-width="0" opacity="1" d="M 147 184 L 153 187.5 L 154 189.5 L 154 210.5 L 152.5 212 L 143.5 212 L 144 210.5 L 144 190.5 Q 147.6 188.6 147 184 Z " /><path fill="rgb(129,210,97)" stroke="rgb(129,210,97)" stroke-width="0" opacity="1" d="M 137.5 191 L 138 210.5 L 139 211.5 L 137 210.5 L 137.5 191 Z " /><path fill="rgb(129,210,97)" stroke="rgb(129,210,97)" stroke-width="0" opacity="1" d="M 219.5 195 L 222.5 195 L 228 199.5 L 229 201.5 L 229 222.5 L 227.5 224 L 213.5 224 L 212 222.5 L 212 202.5 L 213 202.5 L 213 221.5 L 214.5 223 Q 218.3 223.8 219 221.5 L 219 201.5 L 222 196 L 217.5 197 L 217.5 196 L 219.5 195 Z " /><path fill="rgb(222,205,64)" stroke="rgb(222,205,64)" stroke-width="0" opacity="0" d="M 140.5 0 L 145 0.5 L 142.5 2 L 132.5 3 L 132.5 2 L 140.5 0 Z " /><path fill="rgb(222,205,64)" stroke="rgb(222,205,64)" stroke-width="0" opacity="0" d="M 155.5 3 L 157 3.5 L 147.5 7 L 147.5 6 L 155.5 3 Z " /><path fill="rgb(222,205,64)" stroke="rgb(222,205,64)" stroke-width="0" opacity="0" d="M 117.5 5 L 120 5.5 L 112.5 8 L 112.5 7 L 117.5 5 Z " /><path fill="rgb(222,205,64)" stroke="rgb(222,205,64)" stroke-width="0" opacity="0" d="M 141.5 8 L 143 8.5 L 135.5 12 L 135.5 11 L 141.5 8 Z " /><path fill="rgb(222,205,64)" stroke="rgb(222,205,64)" stroke-width="0" opacity="0" d="M 93.5 14 L 95 14.5 L 85.5 19 L 85.5 18 L 93.5 14 Z " /><path fill="rgb(222,205,64)" stroke="rgb(222,205,64)" stroke-width="0" opacity="0" d="M 75.5 24 L 74.5 26 L 69.5 29 L 70.5 27 L 75.5 24 Z " /><path fill="rgb(222,205,64)" stroke="rgb(222,205,64)" stroke-width="0" opacity="0" d="M 240.5 24 L 239.5 26 L 233.5 29 L 235.5 26 L 240.5 24 Z " /><path fill="rgb(222,205,64)" stroke="rgb(222,205,64)" stroke-width="0" opacity="0" d="M 259.5 24 L 264.5 26 L 268 29.5 L 264.5 32 L 264.5 31 L 267 29.5 Q 265.3 26.3 260.5 26 L 259.5 24 Z " /><path fill="rgb(222,205,64)" stroke="rgb(222,205,64)" stroke-width="0" opacity="0" d="M 144.5 30 Q 150.3 29.3 151 33.5 L 147.5 31 Q 143.5 31.8 144.5 30 Z " /><path fill="rgb(222,205,64)" stroke="rgb(222,205,64)" stroke-width="0" opacity="0" d="M 62.5 33 L 60.5 36 L 55.5 40 L 59.5 35 L 62.5 33 Z " /><path fill="rgb(222,205,64)" stroke="rgb(222,205,64)" stroke-width="0" opacity="0" d="M 239.5 33 L 246 38.5 L 248 43.5 L 247 43.5 Q 245.8 37.8 241.5 35 L 239.5 33 Z " /><path fill="rgb(222,205,64)" stroke="rgb(222,205,64)" stroke-width="0" opacity="0" d="M 260.5 33 L 259.5 35 L 256 37.5 L 253.5 42 L 254 40.5 L 258.5 34 L 260.5 33 Z " /><path fill="rgb(222,205,64)" stroke="rgb(222,205,64)" stroke-width="0" opacity="0" d="M 140.5 35 L 141 52.5 L 138 54.5 L 140 52.5 L 140.5 35 Z " /><path fill="rgb(222,205,64)" stroke="rgb(222,205,64)" stroke-width="0" opacity="0" d="M 210.5 43 L 221 54.5 L 208.5 66 L 198.5 55 L 209.5 65 L 220 53.5 L 210.5 43 Z " /><path fill="rgb(222,205,64)" stroke="rgb(222,205,64)" stroke-width="0" opacity="0" d="M 88.5 51 L 87 53.5 L 83.5 59 L 84 57.5 L 88.5 51 Z " /><path fill="rgb(222,205,64)" stroke="rgb(222,205,64)" stroke-width="0" opacity="0" d="M 34.5 61 L 32 64.5 L 29.5 68 L 31 65.5 L 34.5 61 Z " /><path fill="rgb(222,205,64)" stroke="rgb(222,205,64)" stroke-width="0" opacity="0" d="M 258.5 69 L 261 70.5 L 260.5 72 Q 258.8 68.3 257 71.5 L 255.5 75 L 255 73.5 L 258.5 69 Z " /><path fill="rgb(222,205,64)" stroke="rgb(222,205,64)" stroke-width="0" opacity="0" d="M 262.5 75 L 266.5 81 L 269 82.5 L 267.5 82 L 264 79.5 L 262.5 75 Z " /><path fill="rgb(222,205,64)" stroke="rgb(222,205,64)" stroke-width="0" opacity="0" d="M 70.5 85 L 71 87.5 L 68.5 93 L 68 91.5 L 70.5 85 Z " /><path fill="rgb(222,205,64)" stroke="rgb(222,205,64)" stroke-width="0" opacity="0" d="M 241.5 86 L 243.5 89 L 249 91.5 L 247.5 91 Q 242.8 90.8 241 87.5 L 241.5 86 Z " /><path fill="rgb(222,205,64)" stroke="rgb(222,205,64)" stroke-width="0" opacity="0" d="M 275.5 87 L 273.5 90 L 268.5 92 L 269.5 90 L 275.5 87 Z " /><path fill="rgb(222,205,64)" stroke="rgb(222,205,64)" stroke-width="0" opacity="0" d="M 266.5 92 L 264 95.5 L 262.5 98 L 263 96.5 L 266.5 92 Z " /><path fill="rgb(222,205,64)" stroke="rgb(222,205,64)" stroke-width="0" opacity="0" d="M 215.5 97 L 216 115.5 L 213 117.5 L 215 115.5 L 215.5 97 Z " /><path fill="rgb(222,205,64)" stroke="rgb(222,205,64)" stroke-width="0" opacity="0" d="M 255.5 99 L 258.5 104 L 261 102.5 L 259.5 105 L 256 102.5 L 255.5 99 Z " /><path fill="rgb(222,205,64)" stroke="rgb(222,205,64)" stroke-width="0" opacity="0" d="M 65.5 105 L 66 110.5 L 65 111.5 L 65 141.5 Q 67.3 142.8 66 147.5 L 65 147.5 Q 66.3 142.8 64 141.5 L 64 111.5 L 65.5 105 Z " /><path fill="rgb(222,205,64)" stroke="rgb(222,205,64)" stroke-width="0" opacity="0" d="M 181.5 108 L 185 113.5 L 183 114.5 L 184 112.5 L 181.5 108 Z " /><path fill="rgb(222,205,64)" stroke="rgb(222,205,64)" stroke-width="0" opacity="0" d="M 7.5 111 L 8 112.5 L 5.5 120 L 5 117.5 L 7.5 111 Z " /><path fill="rgb(222,205,64)" stroke="rgb(222,205,64)" stroke-width="0" opacity="0" d="M 118.5 118 L 120 119.5 L 120 230.5 Q 118 234 116 229.5 L 117.5 230 L 119 229.5 L 119 119.5 L 118.5 118 Z " /><path fill="rgb(222,205,64)" stroke="rgb(222,205,64)" stroke-width="0" opacity="0" d="M 172.5 119 L 173 251.5 L 174 252.5 L 172 251.5 L 172.5 119 Z " /><path fill="rgb(222,205,64)" stroke="rgb(222,205,64)" stroke-width="0" opacity="0" d="M 2.5 131 L 3 133.5 L 0.5 145 L 0 140.5 L 2.5 131 Z " /><path fill="rgb(222,205,64)" stroke="rgb(222,205,64)" stroke-width="0" opacity="0" d="M 317.5 149 L 318 151.5 L 315.5 160 L 315 157.5 L 317.5 149 Z " /><path fill="rgb(222,205,64)" stroke="rgb(222,205,64)" stroke-width="0" opacity="0" d="M 68.5 159 L 71 167.5 L 70 167.5 L 68.5 159 Z " /><path fill="rgb(222,205,64)" stroke="rgb(222,205,64)" stroke-width="0" opacity="0" d="M 251.5 168 L 252 170 Q 257.6 169 259 173.5 Q 260 180 255.5 181 Q 249.2 179.3 247.5 182 L 248.5 180 Q 256.3 181.8 258 177.5 Q 259 172 255.5 171 Q 248.9 172.9 251.5 168 Z " /><path fill="rgb(222,205,64)" stroke="rgb(222,205,64)" stroke-width="0" opacity="0" d="M 312.5 168 L 313 169.5 L 309.5 177 L 309 175.5 L 312.5 168 Z " /><path fill="rgb(222,205,64)" stroke="rgb(222,205,64)" stroke-width="0" opacity="0" d="M 0.5 176 L 2 179.5 L 3 189.5 L 2 189.5 L 0 180.5 L 0.5 176 Z " /><path fill="rgb(222,205,64)" stroke="rgb(222,205,64)" stroke-width="0" opacity="0" d="M 319.5 179 L 320 186.5 L 318.5 189 L 318 186.5 L 319.5 179 Z " /><path fill="rgb(222,205,64)" stroke="rgb(222,205,64)" stroke-width="0" opacity="0" d="M 186.5 180 Q 193.3 178.3 195 181.5 L 195 253.5 L 193.5 255 L 191 254.5 L 194 252.5 L 194 182.5 L 192.5 181 L 186.5 181 L 186.5 180 Z " /><path fill="rgb(222,205,64)" stroke="rgb(222,205,64)" stroke-width="0" opacity="0" d="M 307.5 180 L 308 181.5 L 304.5 187 L 305 185.5 L 307.5 180 Z " /><path fill="rgb(222,205,64)" stroke="rgb(222,205,64)" stroke-width="0" opacity="0" d="M 87.5 200 L 92 205.5 L 89 203.5 L 87.5 200 Z " /><path fill="rgb(222,205,64)" stroke="rgb(222,205,64)" stroke-width="0" opacity="0" d="M 5.5 201 L 8 209.5 L 7 209.5 L 5.5 201 Z " /><path fill="rgb(222,205,64)" stroke="rgb(222,205,64)" stroke-width="0" opacity="0" d="M 315.5 201 L 316 203.5 L 313.5 209 L 313 207.5 L 315.5 201 Z " /><path fill="rgb(222,205,64)" stroke="rgb(222,205,64)" stroke-width="0" opacity="0" d="M 311.5 214 L 312 215.5 L 308.5 223 L 308 221.5 L 311.5 214 Z " /><path fill="rgb(222,205,64)" stroke="rgb(222,205,64)" stroke-width="0" opacity="0" d="M 306.5 226 L 307 227.5 L 303.5 233 L 304 231.5 L 306.5 226 Z " /><path fill="rgb(222,205,64)" stroke="rgb(222,205,64)" stroke-width="0" opacity="0" d="M 268.5 228 L 266.5 231 L 263.5 233 L 265.5 230 L 268.5 228 Z " /><path fill="rgb(222,205,64)" stroke="rgb(222,205,64)" stroke-width="0" opacity="0" d="M 261.5 233 L 260.5 235 L 255.5 238 L 256.5 236 L 261.5 233 Z " /><path fill="rgb(222,205,64)" stroke="rgb(222,205,64)" stroke-width="0" opacity="0" d="M 302.5 234 L 303 235.5 L 297.5 244 L 298 242.5 L 302.5 234 Z " /><path fill="rgb(222,205,64)" stroke="rgb(222,205,64)" stroke-width="0" opacity="0" d="M 296.5 245 L 296 246.5 L 292.5 252 L 293 250.5 L 296.5 245 Z " /><path fill="rgb(222,205,64)" stroke="rgb(222,205,64)" stroke-width="0" opacity="0" d="M 29.5 253 L 35 259.5 L 31 256.5 L 29.5 253 Z " /><path fill="rgb(222,205,64)" stroke="rgb(222,205,64)" stroke-width="0" opacity="0" d="M 287.5 258 L 286 260.5 L 281.5 266 L 285 261.5 L 287.5 258 Z " /><path fill="rgb(222,205,64)" stroke="rgb(222,205,64)" stroke-width="0" opacity="0" d="M 61.5 286 L 68 291.5 L 65.5 290 L 61.5 286 Z " /><path fill="rgb(222,205,64)" stroke="rgb(222,205,64)" stroke-width="0" opacity="0" d="M 259.5 286 L 256.5 290 L 253.5 292 L 255.5 289 L 259.5 286 Z " /><path fill="rgb(222,205,64)" stroke="rgb(222,205,64)" stroke-width="0" opacity="0" d="M 77.5 297 L 84 301.5 L 82.5 301 Q 77.9 300.3 77.5 297 Z " /><path fill="rgb(222,205,64)" stroke="rgb(222,205,64)" stroke-width="0" opacity="0" d="M 243.5 297 L 241.5 300 L 237.5 302 L 238.5 300 L 243.5 297 Z " /><path fill="rgb(222,205,64)" stroke="rgb(222,205,64)" stroke-width="0" opacity="0" d="M 87.5 303 L 94 306.5 L 92.5 306 Q 87.5 305.8 87.5 303 Z " /><path fill="rgb(222,205,64)" stroke="rgb(222,205,64)" stroke-width="0" opacity="0" d="M 111.5 313 L 120 315.5 L 117.5 316 L 111.5 314 L 111.5 313 Z " /><path fill="rgb(222,205,64)" stroke="rgb(222,205,64)" stroke-width="0" opacity="0" d="M 208.5 313 L 210 313.5 L 201.5 316 L 201.5 315 L 208.5 313 Z " /><path fill="rgb(222,205,64)" stroke="rgb(222,205,64)" stroke-width="0" opacity="0" d="M 131.5 318 L 141 319.5 L 133.5 320 L 131.5 318 Z " /><path fill="rgb(222,205,64)" stroke="rgb(222,205,64)" stroke-width="0" opacity="0" d="M 187.5 318 L 190 318.5 Q 187.3 321.3 180.5 320 L 180.5 319 Q 186 320.5 187.5 318 Z " /></svg>